<svg xmlns="http://www.w3.org/2000/svg" viewBox="0 0 511.81 511.95">
    <g id="Layer_2" data-name="Layer 2">
        <g id="dracula">
            <!-- Invertendo as cores das formas -->
            <path d="M256.59,512h-1.37C156,512,75.29,431.21,75.29,332V180C75.29,80.74,156,0,255.22,0h1.37c99.22,0,179.94,80.74,179.94,180V332C436.53,431.21,355.81,512,256.59,512ZM255.22,30c-82.68,0-149.95,67.28-149.95,150V332c0,82.71,67.27,150,150,150h1.37c82.68,0,150-67.28,150-150V180c0-82.7-67.27-150-150-150Z" fill="#FFFFFF"/>
            <path d="M90.27,331.22a14.92,14.92,0,0,1-6.7-1.59L23.35,299.51a15,15,0,0,1-8.09-10.95L.2,198.19a15,15,0,0,1,22.51-15.32L98,228.05a15,15,0,1,1-15.42,25.72L35.12,225.3l8.47,50.8L97,302.8a15,15,0,0,1-6.72,28.42Z" fill="#FFFFFF"/>
            <path d="M421.55,331.22a15,15,0,0,1-6.72-28.42l53.4-26.7,8.46-50.8-47.44,28.47a15,15,0,0,1-15.43-25.72l75.28-45.18a15,15,0,0,1,22.51,15.32l-15.06,90.37a15,15,0,0,1-8.08,10.95l-60.23,30.12A14.87,14.87,0,0,1,421.55,331.22Z" fill="#FFFFFF"/>
            <path d="M90.28,188.14a15,15,0,0,1-15-15c0-22.69,10.56-43.83,29.75-59.53,18.31-15,42.48-23.24,68.05-23.24,25.81,0,49.64,6.66,67.1,18.75,19.8,13.72,30.71,33.78,30.71,56.49a15,15,0,1,1-30,0c0-31.09-35.15-45.25-67.82-45.25-37.39,0-67.82,23.68-67.82,52.78A15,15,0,0,1,90.28,188.14Z" fill="#FFFFFF"/>
            <path d="M421.53,188.14a15,15,0,0,1-15-15c0-29.1-30.42-52.78-67.82-52.78-32.66,0-67.82,14.16-67.82,45.25a15,15,0,1,1-30,0c0-22.71,10.91-42.77,30.71-56.49,17.46-12.09,41.29-18.75,67.1-18.75,25.57,0,49.74,8.25,68,23.24,19.19,15.7,29.76,36.84,29.76,59.53A15,15,0,0,1,421.53,188.14Z" fill="#FFFFFF"/>
            <path d="M225.81,240.85a14.92,14.92,0,0,1-3-.29L147.57,225.5a15,15,0,1,1,5.88-29.42l75.28,15.06a15,15,0,0,1-2.92,29.71Z" fill="#FFFFFF"/>
            <path d="M165.55,271a15,15,0,0,1-12-24l27.3-36.71a15,15,0,0,1,24.06,17.9L177.6,264.92A15,15,0,0,1,165.55,271Z" fill="#FFFFFF"/>
            <path d="M286,240.85a15,15,0,0,1-2.93-29.71l75.29-15.06a15,15,0,0,1,5.88,29.42L289,240.56A14.9,14.9,0,0,1,286,240.85Z" fill="#FFFFFF"/>
            <path d="M346.26,271a15,15,0,0,1-12-6.05l-27.3-36.71A15,15,0,0,1,331,210.31L358.28,247a15,15,0,0,1-12,24Z" fill="#FFFFFF"/>
            <path d="M281,346.28H230.84c-13.51,0-25.57-6.64-31.49-17.32a28.1,28.1,0,0,1,.82-28.88,15.89,15.89,0,0,1,1.52-2l24.36-27.31c6.38-9.23,17.43-14.69,29.86-14.7s23.47,5.47,29.86,14.7L310.12,298a15.08,15.08,0,0,1,1.53,2,28.12,28.12,0,0,1,.82,28.88C306.55,339.64,294.48,346.28,281,346.28Zm-54.44-31a8.22,8.22,0,0,0,4.3,1H281a8.21,8.21,0,0,0,4.29-1l-22.6-25.34a15.89,15.89,0,0,1-1.52-2c-.57-.9-2.68-1.83-5.24-1.83s-4.68.93-5.24,1.83a15.08,15.08,0,0,1-1.53,2ZM238,279.91h0Z" fill="#FFFFFF"/>
            <path d="M110.67,426a15,15,0,0,1-3.87-29.49C205.74,370,306.08,370,405,396.49a15,15,0,0,1-7.76,29c-93.8-25.14-188.91-25.14-282.7,0A15.4,15.4,0,0,1,110.67,426Z" fill="#FFFFFF"/>
            <path d="M225.79,451.71a15,15,0,0,1-14.22-10.26l-14.45-43.36a15,15,0,1,1,28.45-9.48L240,432a15,15,0,0,1-9.49,19A14.8,14.8,0,0,1,225.79,451.71Z" fill="#FFFFFF"/>
            <path d="M286,451.71a14.8,14.8,0,0,1-4.74-.78,15,15,0,0,1-9.48-19l14.44-43.35a15,15,0,1,1,28.45,9.48l-14.44,43.36A15,15,0,0,1,286,451.71Z" fill="#FFFFFF"/>
        </g>
    </g>
</svg>
